<?xml version="1.0" encoding="UTF-8"?>
<svg xmlns="http://www.w3.org/2000/svg"
      xmlns:xlink="http://www.w3.org/1999/xlink"
      xmlns:ev="http://www.w3.org/2001/xml-events"
      version="1.1" baseProfile="full" width="385mm" height="385mm" viewBox="0 0 385 385"><path d="M307,1 a306,306 0 0,0 -306, 306" stroke="gray" stroke-width="0.1" fill="none" /><path d="M307,11 a296,296 0 0,0 -296, 296" stroke="gray" stroke-width="0.1" fill="none" /><path d="M307,1 l0,10" stroke="gray" stroke-width="0.1" fill="none" /><path d="M1,307 l10,0" stroke="gray" stroke-width="0.1" fill="none" /><path d="M293.928625241,1.27931185163 l0.427169109768,9.99087216171" stroke="black" stroke-width="1" fill="none" /><path d="M290.95158759,1.42112563345 l0.524457921886,9.9862377244" stroke="black" stroke-width="1" fill="none" /><path d="M279.396654626,2.24755074952 l0.902070110259,9.95923036766" stroke="black" stroke-width="1" fill="none" /><path d="M276.429736721,2.53085705933 l0.999028211746,9.94997199153" stroke="black" stroke-width="1" fill="none" /><path d="M264.927214466,3.9061519637 l1.37492763181,9.9050277136" stroke="black" stroke-width="1" fill="none" /><path d="M261.97713733,4.33030902159 l1.47133538138,9.89116637184" stroke="black" stroke-width="1" fill="none" /><path d="M250.553082698,6.25135822897 l1.84467050006,9.82838698598" stroke="black" stroke-width="1" fill="none" /><path d="M247.626529204,6.81540518278 l1.94030950315,9.80995407899" stroke="black" stroke-width="1" fill="none" /><path d="M236.306821353,9.27785689884 l2.31023459631,9.72948180069" stroke="black" stroke-width="1" fill="none" /><path d="M233.410421085,9.98051600079 l2.40488819983,9.70651908494" stroke="black" stroke-width="1" fill="none" /><path d="M222.220702794,12.9787919804 l2.77056526816,9.60853620979" stroke="black" stroke-width="1" fill="none" /><path d="M219.361017032,13.8184714816 l2.86401905124,9.58109570321" stroke="black" stroke-width="1" fill="none" /><path d="M208.326636612,17.3457796653 l3.22461971856,9.46582419394" stroke="black" stroke-width="1" fill="none" /><path d="M205.510143463,18.3205774217 l3.31666197833,9.43396805811" stroke="black" stroke-width="1" fill="none" /><path d="M194.656097334,22.3689273219 l3.67136936816,9.30166904177" stroke="black" stroke-width="1" fill="none" /><path d="M191.889177062,23.476635103 l3.76179159929,9.26546944108" stroke="black" stroke-width="1" fill="none" /><path d="M181.24005313,28.0368559052 l4.10980218529,9.11644261748" stroke="black" stroke-width="1" fill="none" /><path d="M178.528973698,29.2749643966 l4.19839955235,9.07598155567" stroke="black" stroke-width="1" fill="none" /><path d="M168.108895654,34.3367257339 l4.53892497863,8.9105645185" stroke="black" stroke-width="1" fill="none" /><path d="M165.459798529,35.7024302216 l4.62549678008,8.86593365289" stroke="black" stroke-width="1" fill="none" /><path d="M155.292371201,41.2542655765 l4.95776564702,8.68450112495" stroke="black" stroke-width="1" fill="none" /><path d="M152.711257441,42.7444723007 l5.04211576989,8.6358015588" stroke="black" stroke-width="1" fill="none" /><path d="M142.819513322,48.7738049805 l5.36537538163,8.43876454312" stroke="black" stroke-width="1" fill="none" /><path d="M140.31222998,50.3851381436 l5.44731274577,8.38610659662" stroke="black" stroke-width="1" fill="none" /><path d="M130.718577051,56.8783097705 l5.76083081531,8.17391144541" stroke="black" stroke-width="1" fill="none" /><path d="M128.290803929,58.6071191846 l5.84016980623,8.11741440573" stroke="black" stroke-width="1" fill="none" /><path d="M119.016974902,65.5494206366 l6.14323611432,7.89054180926" stroke="black" stroke-width="1" fill="none" /><path d="M116.674211687,67.3917899923 l6.21979700369,7.83033366038" stroke="black" stroke-width="1" fill="none" /><path d="M107.741214766,74.7674947235 l6.51172500765,7.58929755805" stroke="black" stroke-width="1" fill="none" /><path d="M105.488768571,76.7192504618 l6.58533436043,7.52551469079" stroke="black" stroke-width="1" fill="none" /><path d="M96.9168398666,84.5116501289 l6.86546274946,7.2708611069" stroke="black" stroke-width="1" fill="none" /><path d="M94.7598132065,86.5683708951 l6.93595381678,7.20364800996" stroke="black" stroke-width="1" fill="none" /><path d="M86.5683708951,94.7598132065 l7.20364800996,6.93595381678" stroke="black" stroke-width="1" fill="none" /><path d="M84.5116501289,96.9168398666 l7.2708611069,6.86546274946" stroke="black" stroke-width="1" fill="none" /><path d="M76.7192504618,105.488768571 l7.52551469079,6.58533436043" stroke="black" stroke-width="1" fill="none" /><path d="M74.7674947235,107.741214766 l7.58929755805,6.51172500765" stroke="black" stroke-width="1" fill="none" /><path d="M67.3917899923,116.674211687 l7.83033366038,6.21979700369" stroke="black" stroke-width="1" fill="none" /><path d="M65.5494206366,119.016974902 l7.89054180926,6.14323611432" stroke="black" stroke-width="1" fill="none" /><path d="M58.6071191846,128.290803929 l8.11741440573,5.84016980623" stroke="black" stroke-width="1" fill="none" /><path d="M56.8783097705,130.718577051 l8.17391144541,5.76083081531" stroke="black" stroke-width="1" fill="none" /><path d="M50.3851381436,140.31222998 l8.38610659662,5.44731274577" stroke="black" stroke-width="1" fill="none" /><path d="M48.7738049805,142.819513322 l8.43876454312,5.36537538163" stroke="black" stroke-width="1" fill="none" /><path d="M42.7444723007,152.711257441 l8.6358015588,5.04211576989" stroke="black" stroke-width="1" fill="none" /><path d="M41.2542655765,155.292371201 l8.68450112495,4.95776564702" stroke="black" stroke-width="1" fill="none" /><path d="M35.7024302216,165.459798529 l8.86593365289,4.62549678008" stroke="black" stroke-width="1" fill="none" /><path d="M34.3367257339,168.108895654 l8.9105645185,4.53892497863" stroke="black" stroke-width="1" fill="none" /><path d="M29.2749643966,178.528973698 l9.07598155567,4.19839955235" stroke="black" stroke-width="1" fill="none" /><path d="M28.0368559052,181.24005313 l9.11644261748,4.10980218529" stroke="black" stroke-width="1" fill="none" /><path d="M23.476635103,191.889177062 l9.26546944108,3.76179159929" stroke="black" stroke-width="1" fill="none" /><path d="M22.3689273219,194.656097334 l9.30166904177,3.67136936816" stroke="black" stroke-width="1" fill="none" /><path d="M18.3205774217,205.510143463 l9.43396805811,3.31666197833" stroke="black" stroke-width="1" fill="none" /><path d="M17.3457796653,208.326636612 l9.46582419394,3.22461971856" stroke="black" stroke-width="1" fill="none" /><path d="M13.8184714816,219.361017032 l9.58109570321,2.86401905124" stroke="black" stroke-width="1" fill="none" /><path d="M12.9787919804,222.220702794 l9.60853620979,2.77056526816" stroke="black" stroke-width="1" fill="none" /><path d="M9.98051600079,233.410421085 l9.70651908494,2.40488819983" stroke="black" stroke-width="1" fill="none" /><path d="M9.27785689884,236.306821353 l9.72948180069,2.31023459631" stroke="black" stroke-width="1" fill="none" /><path d="M6.81540518278,247.626529204 l9.80995407899,1.94030950315" stroke="black" stroke-width="1" fill="none" /><path d="M6.25135822897,250.553082698 l9.82838698598,1.84467050006" stroke="black" stroke-width="1" fill="none" /><path d="M4.33030902159,261.97713733 l9.89116637184,1.47133538138" stroke="black" stroke-width="1" fill="none" /><path d="M3.9061519637,264.927214466 l9.9050277136,1.37492763181" stroke="black" stroke-width="1" fill="none" /><path d="M2.53085705933,276.429736721 l9.94997199153,0.999028211746" stroke="black" stroke-width="1" fill="none" /><path d="M2.24755074952,279.396654626 l9.95923036766,0.902070110259" stroke="black" stroke-width="1" fill="none" /><path d="M1.42112563345,290.95158759 l9.9862377244,0.524457921886" stroke="black" stroke-width="1" fill="none" /><path d="M1.27931185163,293.928625241 l9.99087216171,0.427169109768" stroke="black" stroke-width="1" fill="none" /><path d="M318,12 a306,306 0 0,0 -306, 306" stroke="gray" stroke-width="0.1" fill="none" /><path d="M318,22 a296,296 0 0,0 -296, 296" stroke="gray" stroke-width="0.1" fill="none" /><path d="M318,12 l0,10" stroke="gray" stroke-width="0.1" fill="none" /><path d="M12,318 l10,0" stroke="gray" stroke-width="0.1" fill="none" /><path d="M304.928625241,12.2793118516 l0.427169109768,9.99087216171" stroke="black" stroke-width="1" fill="none" /><path d="M301.95158759,12.4211256334 l0.524457921886,9.9862377244" stroke="black" stroke-width="1" fill="none" /><path d="M290.396654626,13.2475507495 l0.902070110259,9.95923036766" stroke="black" stroke-width="1" fill="none" /><path d="M287.429736721,13.5308570593 l0.999028211746,9.94997199153" stroke="black" stroke-width="1" fill="none" /><path d="M275.927214466,14.9061519637 l1.37492763181,9.9050277136" stroke="black" stroke-width="1" fill="none" /><path d="M272.97713733,15.3303090216 l1.47133538138,9.89116637184" stroke="black" stroke-width="1" fill="none" /><path d="M261.553082698,17.251358229 l1.84467050006,9.82838698598" stroke="black" stroke-width="1" fill="none" /><path d="M258.626529204,17.8154051828 l1.94030950315,9.80995407899" stroke="black" stroke-width="1" fill="none" /><path d="M247.306821353,20.2778568988 l2.31023459631,9.72948180069" stroke="black" stroke-width="1" fill="none" /><path d="M244.410421085,20.9805160008 l2.40488819983,9.70651908494" stroke="black" stroke-width="1" fill="none" /><path d="M233.220702794,23.9787919804 l2.77056526816,9.60853620979" stroke="black" stroke-width="1" fill="none" /><path d="M230.361017032,24.8184714816 l2.86401905124,9.58109570321" stroke="black" stroke-width="1" fill="none" /><path d="M219.326636612,28.3457796653 l3.22461971856,9.46582419394" stroke="black" stroke-width="1" fill="none" /><path d="M216.510143463,29.3205774217 l3.31666197833,9.43396805811" stroke="black" stroke-width="1" fill="none" /><path d="M205.656097334,33.3689273219 l3.67136936816,9.30166904177" stroke="black" stroke-width="1" fill="none" /><path d="M202.889177062,34.476635103 l3.76179159929,9.26546944108" stroke="black" stroke-width="1" fill="none" /><path d="M192.24005313,39.0368559052 l4.10980218529,9.11644261748" stroke="black" stroke-width="1" fill="none" /><path d="M189.528973698,40.2749643966 l4.19839955235,9.07598155567" stroke="black" stroke-width="1" fill="none" /><path d="M179.108895654,45.3367257339 l4.53892497863,8.9105645185" stroke="black" stroke-width="1" fill="none" /><path d="M176.459798529,46.7024302216 l4.62549678008,8.86593365289" stroke="black" stroke-width="1" fill="none" /><path d="M166.292371201,52.2542655765 l4.95776564702,8.68450112495" stroke="black" stroke-width="1" fill="none" /><path d="M163.711257441,53.7444723007 l5.04211576989,8.6358015588" stroke="black" stroke-width="1" fill="none" /><path d="M153.819513322,59.7738049805 l5.36537538163,8.43876454312" stroke="black" stroke-width="1" fill="none" /><path d="M151.31222998,61.3851381436 l5.44731274577,8.38610659662" stroke="black" stroke-width="1" fill="none" /><path d="M141.718577051,67.8783097705 l5.76083081531,8.17391144541" stroke="black" stroke-width="1" fill="none" /><path d="M139.290803929,69.6071191846 l5.84016980623,8.11741440573" stroke="black" stroke-width="1" fill="none" /><path d="M130.016974902,76.5494206366 l6.14323611432,7.89054180926" stroke="black" stroke-width="1" fill="none" /><path d="M127.674211687,78.3917899923 l6.21979700369,7.83033366038" stroke="black" stroke-width="1" fill="none" /><path d="M118.741214766,85.7674947235 l6.51172500765,7.58929755805" stroke="black" stroke-width="1" fill="none" /><path d="M116.488768571,87.7192504618 l6.58533436043,7.52551469079" stroke="black" stroke-width="1" fill="none" /><path d="M107.916839867,95.5116501289 l6.86546274946,7.2708611069" stroke="black" stroke-width="1" fill="none" /><path d="M105.759813206,97.5683708951 l6.93595381678,7.20364800996" stroke="black" stroke-width="1" fill="none" /><path d="M97.5683708951,105.759813206 l7.20364800996,6.93595381678" stroke="black" stroke-width="1" fill="none" /><path d="M95.5116501289,107.916839867 l7.2708611069,6.86546274946" stroke="black" stroke-width="1" fill="none" /><path d="M87.7192504618,116.488768571 l7.52551469079,6.58533436043" stroke="black" stroke-width="1" fill="none" /><path d="M85.7674947235,118.741214766 l7.58929755805,6.51172500765" stroke="black" stroke-width="1" fill="none" /><path d="M78.3917899923,127.674211687 l7.83033366038,6.21979700369" stroke="black" stroke-width="1" fill="none" /><path d="M76.5494206366,130.016974902 l7.89054180926,6.14323611432" stroke="black" stroke-width="1" fill="none" /><path d="M69.6071191846,139.290803929 l8.11741440573,5.84016980623" stroke="black" stroke-width="1" fill="none" /><path d="M67.8783097705,141.718577051 l8.17391144541,5.76083081531" stroke="black" stroke-width="1" fill="none" /><path d="M61.3851381436,151.31222998 l8.38610659662,5.44731274577" stroke="black" stroke-width="1" fill="none" /><path d="M59.7738049805,153.819513322 l8.43876454312,5.36537538163" stroke="black" stroke-width="1" fill="none" /><path d="M53.7444723007,163.711257441 l8.6358015588,5.04211576989" stroke="black" stroke-width="1" fill="none" /><path d="M52.2542655765,166.292371201 l8.68450112495,4.95776564702" stroke="black" stroke-width="1" fill="none" /><path d="M46.7024302216,176.459798529 l8.86593365289,4.62549678008" stroke="black" stroke-width="1" fill="none" /><path d="M45.3367257339,179.108895654 l8.9105645185,4.53892497863" stroke="black" stroke-width="1" fill="none" /><path d="M40.2749643966,189.528973698 l9.07598155567,4.19839955235" stroke="black" stroke-width="1" fill="none" /><path d="M39.0368559052,192.24005313 l9.11644261748,4.10980218529" stroke="black" stroke-width="1" fill="none" /><path d="M34.476635103,202.889177062 l9.26546944108,3.76179159929" stroke="black" stroke-width="1" fill="none" /><path d="M33.3689273219,205.656097334 l9.30166904177,3.67136936816" stroke="black" stroke-width="1" fill="none" /><path d="M29.3205774217,216.510143463 l9.43396805811,3.31666197833" stroke="black" stroke-width="1" fill="none" /><path d="M28.3457796653,219.326636612 l9.46582419394,3.22461971856" stroke="black" stroke-width="1" fill="none" /><path d="M24.8184714816,230.361017032 l9.58109570321,2.86401905124" stroke="black" stroke-width="1" fill="none" /><path d="M23.9787919804,233.220702794 l9.60853620979,2.77056526816" stroke="black" stroke-width="1" fill="none" /><path d="M20.9805160008,244.410421085 l9.70651908494,2.40488819983" stroke="black" stroke-width="1" fill="none" /><path d="M20.2778568988,247.306821353 l9.72948180069,2.31023459631" stroke="black" stroke-width="1" fill="none" /><path d="M17.8154051828,258.626529204 l9.80995407899,1.94030950315" stroke="black" stroke-width="1" fill="none" /><path d="M17.251358229,261.553082698 l9.82838698598,1.84467050006" stroke="black" stroke-width="1" fill="none" /><path d="M15.3303090216,272.97713733 l9.89116637184,1.47133538138" stroke="black" stroke-width="1" fill="none" /><path d="M14.9061519637,275.927214466 l9.9050277136,1.37492763181" stroke="black" stroke-width="1" fill="none" /><path d="M13.5308570593,287.429736721 l9.94997199153,0.999028211746" stroke="black" stroke-width="1" fill="none" /><path d="M13.2475507495,290.396654626 l9.95923036766,0.902070110259" stroke="black" stroke-width="1" fill="none" /><path d="M12.4211256334,301.95158759 l9.9862377244,0.524457921886" stroke="black" stroke-width="1" fill="none" /><path d="M12.2793118516,304.928625241 l9.99087216171,0.427169109768" stroke="black" stroke-width="1" fill="none" /><path d="M329,23 a306,306 0 0,0 -306, 306" stroke="gray" stroke-width="0.1" fill="none" /><path d="M329,33 a296,296 0 0,0 -296, 296" stroke="gray" stroke-width="0.1" fill="none" /><path d="M329,23 l0,10" stroke="gray" stroke-width="0.1" fill="none" /><path d="M23,329 l10,0" stroke="gray" stroke-width="0.1" fill="none" /><path d="M315.928625241,23.2793118516 l0.427169109768,9.99087216171" stroke="black" stroke-width="1" fill="none" /><path d="M312.95158759,23.4211256334 l0.524457921886,9.9862377244" stroke="black" stroke-width="1" fill="none" /><path d="M301.396654626,24.2475507495 l0.902070110259,9.95923036766" stroke="black" stroke-width="1" fill="none" /><path d="M298.429736721,24.5308570593 l0.999028211746,9.94997199153" stroke="black" stroke-width="1" fill="none" /><path d="M286.927214466,25.9061519637 l1.37492763181,9.9050277136" stroke="black" stroke-width="1" fill="none" /><path d="M283.97713733,26.3303090216 l1.47133538138,9.89116637184" stroke="black" stroke-width="1" fill="none" /><path d="M272.553082698,28.251358229 l1.84467050006,9.82838698598" stroke="black" stroke-width="1" fill="none" /><path d="M269.626529204,28.8154051828 l1.94030950315,9.80995407899" stroke="black" stroke-width="1" fill="none" /><path d="M258.306821353,31.2778568988 l2.31023459631,9.72948180069" stroke="black" stroke-width="1" fill="none" /><path d="M255.410421085,31.9805160008 l2.40488819983,9.70651908494" stroke="black" stroke-width="1" fill="none" /><path d="M244.220702794,34.9787919804 l2.77056526816,9.60853620979" stroke="black" stroke-width="1" fill="none" /><path d="M241.361017032,35.8184714816 l2.86401905124,9.58109570321" stroke="black" stroke-width="1" fill="none" /><path d="M230.326636612,39.3457796653 l3.22461971856,9.46582419394" stroke="black" stroke-width="1" fill="none" /><path d="M227.510143463,40.3205774217 l3.31666197833,9.43396805811" stroke="black" stroke-width="1" fill="none" /><path d="M216.656097334,44.3689273219 l3.67136936816,9.30166904177" stroke="black" stroke-width="1" fill="none" /><path d="M213.889177062,45.476635103 l3.76179159929,9.26546944108" stroke="black" stroke-width="1" fill="none" /><path d="M203.24005313,50.0368559052 l4.10980218529,9.11644261748" stroke="black" stroke-width="1" fill="none" /><path d="M200.528973698,51.2749643966 l4.19839955235,9.07598155567" stroke="black" stroke-width="1" fill="none" /><path d="M190.108895654,56.3367257339 l4.53892497863,8.9105645185" stroke="black" stroke-width="1" fill="none" /><path d="M187.459798529,57.7024302216 l4.62549678008,8.86593365289" stroke="black" stroke-width="1" fill="none" /><path d="M177.292371201,63.2542655765 l4.95776564702,8.68450112495" stroke="black" stroke-width="1" fill="none" /><path d="M174.711257441,64.7444723007 l5.04211576989,8.6358015588" stroke="black" stroke-width="1" fill="none" /><path d="M164.819513322,70.7738049805 l5.36537538163,8.43876454312" stroke="black" stroke-width="1" fill="none" /><path d="M162.31222998,72.3851381436 l5.44731274577,8.38610659662" stroke="black" stroke-width="1" fill="none" /><path d="M152.718577051,78.8783097705 l5.76083081531,8.17391144541" stroke="black" stroke-width="1" fill="none" /><path d="M150.290803929,80.6071191846 l5.84016980623,8.11741440573" stroke="black" stroke-width="1" fill="none" /><path d="M141.016974902,87.5494206366 l6.14323611432,7.89054180926" stroke="black" stroke-width="1" fill="none" /><path d="M138.674211687,89.3917899923 l6.21979700369,7.83033366038" stroke="black" stroke-width="1" fill="none" /><path d="M129.741214766,96.7674947235 l6.51172500765,7.58929755805" stroke="black" stroke-width="1" fill="none" /><path d="M127.488768571,98.7192504618 l6.58533436043,7.52551469079" stroke="black" stroke-width="1" fill="none" /><path d="M118.916839867,106.511650129 l6.86546274946,7.2708611069" stroke="black" stroke-width="1" fill="none" /><path d="M116.759813206,108.568370895 l6.93595381678,7.20364800996" stroke="black" stroke-width="1" fill="none" /><path d="M108.568370895,116.759813206 l7.20364800996,6.93595381678" stroke="black" stroke-width="1" fill="none" /><path d="M106.511650129,118.916839867 l7.2708611069,6.86546274946" stroke="black" stroke-width="1" fill="none" /><path d="M98.7192504618,127.488768571 l7.52551469079,6.58533436043" stroke="black" stroke-width="1" fill="none" /><path d="M96.7674947235,129.741214766 l7.58929755805,6.51172500765" stroke="black" stroke-width="1" fill="none" /><path d="M89.3917899923,138.674211687 l7.83033366038,6.21979700369" stroke="black" stroke-width="1" fill="none" /><path d="M87.5494206366,141.016974902 l7.89054180926,6.14323611432" stroke="black" stroke-width="1" fill="none" /><path d="M80.6071191846,150.290803929 l8.11741440573,5.84016980623" stroke="black" stroke-width="1" fill="none" /><path d="M78.8783097705,152.718577051 l8.17391144541,5.76083081531" stroke="black" stroke-width="1" fill="none" /><path d="M72.3851381436,162.31222998 l8.38610659662,5.44731274577" stroke="black" stroke-width="1" fill="none" /><path d="M70.7738049805,164.819513322 l8.43876454312,5.36537538163" stroke="black" stroke-width="1" fill="none" /><path d="M64.7444723007,174.711257441 l8.6358015588,5.04211576989" stroke="black" stroke-width="1" fill="none" /><path d="M63.2542655765,177.292371201 l8.68450112495,4.95776564702" stroke="black" stroke-width="1" fill="none" /><path d="M57.7024302216,187.459798529 l8.86593365289,4.62549678008" stroke="black" stroke-width="1" fill="none" /><path d="M56.3367257339,190.108895654 l8.9105645185,4.53892497863" stroke="black" stroke-width="1" fill="none" /><path d="M51.2749643966,200.528973698 l9.07598155567,4.19839955235" stroke="black" stroke-width="1" fill="none" /><path d="M50.0368559052,203.24005313 l9.11644261748,4.10980218529" stroke="black" stroke-width="1" fill="none" /><path d="M45.476635103,213.889177062 l9.26546944108,3.76179159929" stroke="black" stroke-width="1" fill="none" /><path d="M44.3689273219,216.656097334 l9.30166904177,3.67136936816" stroke="black" stroke-width="1" fill="none" /><path d="M40.3205774217,227.510143463 l9.43396805811,3.31666197833" stroke="black" stroke-width="1" fill="none" /><path d="M39.3457796653,230.326636612 l9.46582419394,3.22461971856" stroke="black" stroke-width="1" fill="none" /><path d="M35.8184714816,241.361017032 l9.58109570321,2.86401905124" stroke="black" stroke-width="1" fill="none" /><path d="M34.9787919804,244.220702794 l9.60853620979,2.77056526816" stroke="black" stroke-width="1" fill="none" /><path d="M31.9805160008,255.410421085 l9.70651908494,2.40488819983" stroke="black" stroke-width="1" fill="none" /><path d="M31.2778568988,258.306821353 l9.72948180069,2.31023459631" stroke="black" stroke-width="1" fill="none" /><path d="M28.8154051828,269.626529204 l9.80995407899,1.94030950315" stroke="black" stroke-width="1" fill="none" /><path d="M28.251358229,272.553082698 l9.82838698598,1.84467050006" stroke="black" stroke-width="1" fill="none" /><path d="M26.3303090216,283.97713733 l9.89116637184,1.47133538138" stroke="black" stroke-width="1" fill="none" /><path d="M25.9061519637,286.927214466 l9.9050277136,1.37492763181" stroke="black" stroke-width="1" fill="none" /><path d="M24.5308570593,298.429736721 l9.94997199153,0.999028211746" stroke="black" stroke-width="1" fill="none" /><path d="M24.2475507495,301.396654626 l9.95923036766,0.902070110259" stroke="black" stroke-width="1" fill="none" /><path d="M23.4211256334,312.95158759 l9.9862377244,0.524457921886" stroke="black" stroke-width="1" fill="none" /><path d="M23.2793118516,315.928625241 l9.99087216171,0.427169109768" stroke="black" stroke-width="1" fill="none" /><path d="M340,34 a306,306 0 0,0 -306, 306" stroke="gray" stroke-width="0.1" fill="none" /><path d="M340,44 a296,296 0 0,0 -296, 296" stroke="gray" stroke-width="0.1" fill="none" /><path d="M340,34 l0,10" stroke="gray" stroke-width="0.1" fill="none" /><path d="M34,340 l10,0" stroke="gray" stroke-width="0.1" fill="none" /><path d="M326.928625241,34.2793118516 l0.427169109768,9.99087216171" stroke="black" stroke-width="1" fill="none" /><path d="M323.95158759,34.4211256334 l0.524457921886,9.9862377244" stroke="black" stroke-width="1" fill="none" /><path d="M312.396654626,35.2475507495 l0.902070110259,9.95923036766" stroke="black" stroke-width="1" fill="none" /><path d="M309.429736721,35.5308570593 l0.999028211746,9.94997199153" stroke="black" stroke-width="1" fill="none" /><path d="M297.927214466,36.9061519637 l1.37492763181,9.9050277136" stroke="black" stroke-width="1" fill="none" /><path d="M294.97713733,37.3303090216 l1.47133538138,9.89116637184" stroke="black" stroke-width="1" fill="none" /><path d="M283.553082698,39.251358229 l1.84467050006,9.82838698598" stroke="black" stroke-width="1" fill="none" /><path d="M280.626529204,39.8154051828 l1.94030950315,9.80995407899" stroke="black" stroke-width="1" fill="none" /><path d="M269.306821353,42.2778568988 l2.31023459631,9.72948180069" stroke="black" stroke-width="1" fill="none" /><path d="M266.410421085,42.9805160008 l2.40488819983,9.70651908494" stroke="black" stroke-width="1" fill="none" /><path d="M255.220702794,45.9787919804 l2.77056526816,9.60853620979" stroke="black" stroke-width="1" fill="none" /><path d="M252.361017032,46.8184714816 l2.86401905124,9.58109570321" stroke="black" stroke-width="1" fill="none" /><path d="M241.326636612,50.3457796653 l3.22461971856,9.46582419394" stroke="black" stroke-width="1" fill="none" /><path d="M238.510143463,51.3205774217 l3.31666197833,9.43396805811" stroke="black" stroke-width="1" fill="none" /><path d="M227.656097334,55.3689273219 l3.67136936816,9.30166904177" stroke="black" stroke-width="1" fill="none" /><path d="M224.889177062,56.476635103 l3.76179159929,9.26546944108" stroke="black" stroke-width="1" fill="none" /><path d="M214.24005313,61.0368559052 l4.10980218529,9.11644261748" stroke="black" stroke-width="1" fill="none" /><path d="M211.528973698,62.2749643966 l4.19839955235,9.07598155567" stroke="black" stroke-width="1" fill="none" /><path d="M201.108895654,67.3367257339 l4.53892497863,8.9105645185" stroke="black" stroke-width="1" fill="none" /><path d="M198.459798529,68.7024302216 l4.62549678008,8.86593365289" stroke="black" stroke-width="1" fill="none" /><path d="M188.292371201,74.2542655765 l4.95776564702,8.68450112495" stroke="black" stroke-width="1" fill="none" /><path d="M185.711257441,75.7444723007 l5.04211576989,8.6358015588" stroke="black" stroke-width="1" fill="none" /><path d="M175.819513322,81.7738049805 l5.36537538163,8.43876454312" stroke="black" stroke-width="1" fill="none" /><path d="M173.31222998,83.3851381436 l5.44731274577,8.38610659662" stroke="black" stroke-width="1" fill="none" /><path d="M163.718577051,89.8783097705 l5.76083081531,8.17391144541" stroke="black" stroke-width="1" fill="none" /><path d="M161.290803929,91.6071191846 l5.84016980623,8.11741440573" stroke="black" stroke-width="1" fill="none" /><path d="M152.016974902,98.5494206366 l6.14323611432,7.89054180926" stroke="black" stroke-width="1" fill="none" /><path d="M149.674211687,100.391789992 l6.21979700369,7.83033366038" stroke="black" stroke-width="1" fill="none" /><path d="M140.741214766,107.767494724 l6.51172500765,7.58929755805" stroke="black" stroke-width="1" fill="none" /><path d="M138.488768571,109.719250462 l6.58533436043,7.52551469079" stroke="black" stroke-width="1" fill="none" /><path d="M129.916839867,117.511650129 l6.86546274946,7.2708611069" stroke="black" stroke-width="1" fill="none" /><path d="M127.759813206,119.568370895 l6.93595381678,7.20364800996" stroke="black" stroke-width="1" fill="none" /><path d="M119.568370895,127.759813206 l7.20364800996,6.93595381678" stroke="black" stroke-width="1" fill="none" /><path d="M117.511650129,129.916839867 l7.2708611069,6.86546274946" stroke="black" stroke-width="1" fill="none" /><path d="M109.719250462,138.488768571 l7.52551469079,6.58533436043" stroke="black" stroke-width="1" fill="none" /><path d="M107.767494724,140.741214766 l7.58929755805,6.51172500765" stroke="black" stroke-width="1" fill="none" /><path d="M100.391789992,149.674211687 l7.83033366038,6.21979700369" stroke="black" stroke-width="1" fill="none" /><path d="M98.5494206366,152.016974902 l7.89054180926,6.14323611432" stroke="black" stroke-width="1" fill="none" /><path d="M91.6071191846,161.290803929 l8.11741440573,5.84016980623" stroke="black" stroke-width="1" fill="none" /><path d="M89.8783097705,163.718577051 l8.17391144541,5.76083081531" stroke="black" stroke-width="1" fill="none" /><path d="M83.3851381436,173.31222998 l8.38610659662,5.44731274577" stroke="black" stroke-width="1" fill="none" /><path d="M81.7738049805,175.819513322 l8.43876454312,5.36537538163" stroke="black" stroke-width="1" fill="none" /><path d="M75.7444723007,185.711257441 l8.6358015588,5.04211576989" stroke="black" stroke-width="1" fill="none" /><path d="M74.2542655765,188.292371201 l8.68450112495,4.95776564702" stroke="black" stroke-width="1" fill="none" /><path d="M68.7024302216,198.459798529 l8.86593365289,4.62549678008" stroke="black" stroke-width="1" fill="none" /><path d="M67.3367257339,201.108895654 l8.9105645185,4.53892497863" stroke="black" stroke-width="1" fill="none" /><path d="M62.2749643966,211.528973698 l9.07598155567,4.19839955235" stroke="black" stroke-width="1" fill="none" /><path d="M61.0368559052,214.24005313 l9.11644261748,4.10980218529" stroke="black" stroke-width="1" fill="none" /><path d="M56.476635103,224.889177062 l9.26546944108,3.76179159929" stroke="black" stroke-width="1" fill="none" /><path d="M55.3689273219,227.656097334 l9.30166904177,3.67136936816" stroke="black" stroke-width="1" fill="none" /><path d="M51.3205774217,238.510143463 l9.43396805811,3.31666197833" stroke="black" stroke-width="1" fill="none" /><path d="M50.3457796653,241.326636612 l9.46582419394,3.22461971856" stroke="black" stroke-width="1" fill="none" /><path d="M46.8184714816,252.361017032 l9.58109570321,2.86401905124" stroke="black" stroke-width="1" fill="none" /><path d="M45.9787919804,255.220702794 l9.60853620979,2.77056526816" stroke="black" stroke-width="1" fill="none" /><path d="M42.9805160008,266.410421085 l9.70651908494,2.40488819983" stroke="black" stroke-width="1" fill="none" /><path d="M42.2778568988,269.306821353 l9.72948180069,2.31023459631" stroke="black" stroke-width="1" fill="none" /><path d="M39.8154051828,280.626529204 l9.80995407899,1.94030950315" stroke="black" stroke-width="1" fill="none" /><path d="M39.251358229,283.553082698 l9.82838698598,1.84467050006" stroke="black" stroke-width="1" fill="none" /><path d="M37.3303090216,294.97713733 l9.89116637184,1.47133538138" stroke="black" stroke-width="1" fill="none" /><path d="M36.9061519637,297.927214466 l9.9050277136,1.37492763181" stroke="black" stroke-width="1" fill="none" /><path d="M35.5308570593,309.429736721 l9.94997199153,0.999028211746" stroke="black" stroke-width="1" fill="none" /><path d="M35.2475507495,312.396654626 l9.95923036766,0.902070110259" stroke="black" stroke-width="1" fill="none" /><path d="M34.4211256334,323.95158759 l9.9862377244,0.524457921886" stroke="black" stroke-width="1" fill="none" /><path d="M34.2793118516,326.928625241 l9.99087216171,0.427169109768" stroke="black" stroke-width="1" fill="none" /><path d="M351,45 a306,306 0 0,0 -306, 306" stroke="gray" stroke-width="0.1" fill="none" /><path d="M351,55 a296,296 0 0,0 -296, 296" stroke="gray" stroke-width="0.1" fill="none" /><path d="M351,45 l0,10" stroke="gray" stroke-width="0.1" fill="none" /><path d="M45,351 l10,0" stroke="gray" stroke-width="0.1" fill="none" /><path d="M362,56 a306,306 0 0,0 -306, 306" stroke="gray" stroke-width="0.1" fill="none" /><path d="M362,66 a296,296 0 0,0 -296, 296" stroke="gray" stroke-width="0.1" fill="none" /><path d="M362,56 l0,10" stroke="gray" stroke-width="0.1" fill="none" /><path d="M56,362 l10,0" stroke="gray" stroke-width="0.1" fill="none" /><path d="M373,67 a306,306 0 0,0 -306, 306" stroke="gray" stroke-width="0.1" fill="none" /><path d="M373,77 a296,296 0 0,0 -296, 296" stroke="gray" stroke-width="0.1" fill="none" /><path d="M373,67 l0,10" stroke="gray" stroke-width="0.1" fill="none" /><path d="M67,373 l10,0" stroke="gray" stroke-width="0.1" fill="none" /><path d="M384,78 a306,306 0 0,0 -306, 306" stroke="gray" stroke-width="0.1" fill="none" /><path d="M384,88 a296,296 0 0,0 -296, 296" stroke="gray" stroke-width="0.1" fill="none" /><path d="M384,78 l0,10" stroke="gray" stroke-width="0.1" fill="none" /><path d="M78,384 l10,0" stroke="gray" stroke-width="0.1" fill="none" /></svg>